<svg xmlns="http://www.w3.org/2000/svg" height="32" width="32" viewBox="0 0 32 32" shape-rendering="crispEdges">
<metadata>Made with Pixels to Svg https://codepen.io/shshaw/pen/XbxvNj</metadata>
<path stroke="#ffffff" d="M27 9h2M27 10h2M25 11h2M25 12h2M23 13h2M23 14h2M21 15h2M29 15h2M21 16h2M29 16h2M19 17h2M27 17h2M19 18h2M27 18h2M17 19h2M25 19h2M17 20h2M25 20h2M15 21h2M23 21h2M15 22h2M23 22h2M13 23h2M21 23h2M29 23h2M13 24h2M21 24h2M29 24h2M11 25h2M19 25h2M27 25h2M11 26h2M19 26h2M27 26h2M9 27h2M17 27h2M25 27h2M9 28h2M17 28h2M25 28h2M7 29h2M15 29h2M23 29h2M7 30h2M15 30h2M23 30h2" />
<path stroke="#85898d" d="M29 9h2M29 10h2M27 11h4M27 12h4M25 13h4M25 14h4M23 15h4M23 16h4M21 17h4M29 17h2M21 18h4M29 18h2M19 19h4M27 19h4M19 20h4M27 20h4M17 21h4M25 21h4M17 22h4M25 22h4M15 23h4M23 23h4M15 24h4M23 24h4M13 25h4M21 25h4M29 25h2M13 26h4M21 26h4M29 26h2M11 27h4M19 27h4M27 27h4M11 28h4M19 28h4M27 28h4M9 29h4M17 29h4M25 29h4M9 30h4M17 30h4M25 30h4" />
</svg>